<?xml version="1.0" encoding="utf-8" ?>
<svg baseProfile="full" height="333px" version="1.1" viewBox="0 0 1000 333" width="1000px" xmlns="http://www.w3.org/2000/svg" xmlns:ev="http://www.w3.org/2001/xml-events" xmlns:xlink="http://www.w3.org/1999/xlink"><defs /><path d="M 587 264 L 587 301 L 590 301 L 590 264 Z" fill="currentColor" fill-rule="evenodd" stroke="none" /><path d="M 349 264 L 349 301 L 352 301 L 352 264 Z" fill="currentColor" fill-rule="evenodd" stroke="none" /><path d="M 246 264 L 246 301 L 249 301 L 249 264 Z" fill="currentColor" fill-rule="evenodd" stroke="none" /><path d="M 712 210 L 712 219 L 744 219 L 744 210 Z" fill="currentColor" fill-rule="evenodd" stroke="none" /><path d="M 793 203 L 793 206 L 831 206 L 832 205 L 832 203 Z" fill="currentColor" fill-rule="evenodd" stroke="none" /><path d="M 611 203 L 611 206 L 659 206 L 659 203 Z" fill="currentColor" fill-rule="evenodd" stroke="none" /><path d="M 517 203 L 518 204 L 518 206 L 567 206 L 567 203 Z" fill="currentColor" fill-rule="evenodd" stroke="none" /><path d="M 328 179 L 327 179 L 325 181 L 325 182 L 328 182 Z" fill="currentColor" fill-rule="evenodd" stroke="none" /><path d="M 269 180 L 269 182 L 273 182 L 271 179 Z" fill="currentColor" fill-rule="evenodd" stroke="none" /><path d="M 157 179 L 157 180 L 159 182 L 225 182 L 225 180 L 224 179 Z" fill="currentColor" fill-rule="evenodd" stroke="none" /><path d="M 724 111 L 724 122 L 723 123 L 712 123 L 712 131 L 723 131 L 724 132 L 724 143 L 732 143 L 732 132 L 733 131 L 744 131 L 744 123 L 733 123 L 732 122 L 732 111 Z" fill="currentColor" fill-rule="evenodd" stroke="none" /><path d="M 329 106 L 328 106 L 320 123 L 318 125 L 310 142 L 308 144 L 299 162 L 296 158 L 288 141 L 286 139 L 270 107 L 269 107 L 269 154 L 274 164 L 276 166 L 281 177 L 283 179 L 289 192 L 291 194 L 307 194 L 316 176 L 318 174 L 324 161 L 326 159 L 329 153 Z" fill="currentColor" fill-rule="evenodd" stroke="none" /><path d="M 782 100 L 782 102 L 783 103 L 836 103 L 836 100 Z" fill="currentColor" fill-rule="evenodd" stroke="none" /><path d="M 658 103 L 667 103 L 669 101 L 669 100 L 658 100 Z" fill="currentColor" fill-rule="evenodd" stroke="none" /><path d="M 488 100 L 488 102 L 489 103 L 519 103 L 519 100 Z" fill="currentColor" fill-rule="evenodd" stroke="none" /><path d="M 373 103 L 427 103 L 427 101 L 428 100 L 373 100 Z" fill="currentColor" fill-rule="evenodd" stroke="none" /><path d="M 278 100 L 278 102 L 279 103 L 319 103 L 320 100 Z" fill="currentColor" fill-rule="evenodd" stroke="none" /><path d="M 611 87 L 611 111 L 648 111 L 648 87 Z" fill="currentColor" fill-rule="evenodd" stroke="none" /><path d="M 577 87 L 577 254 L 601 254 L 601 87 Z" fill="currentColor" fill-rule="evenodd" stroke="none" /><path d="M 529 87 L 529 111 L 567 111 L 567 87 Z" fill="currentColor" fill-rule="evenodd" stroke="none" /><path d="M 339 87 L 339 254 L 363 254 L 363 87 Z" fill="currentColor" fill-rule="evenodd" stroke="none" /><path d="M 236 87 L 236 254 L 259 254 L 259 87 Z" fill="currentColor" fill-rule="evenodd" stroke="none" /><path d="M 710 84 L 709 85 L 702 86 L 699 88 L 697 88 L 693 90 L 691 92 L 687 94 L 680 101 L 680 102 L 678 104 L 674 112 L 674 114 L 673 115 L 673 119 L 672 120 L 672 134 L 673 135 L 673 140 L 674 141 L 675 146 L 677 150 L 681 155 L 681 156 L 688 163 L 689 163 L 694 167 L 704 172 L 706 172 L 709 174 L 715 175 L 716 176 L 718 176 L 722 178 L 728 179 L 731 181 L 733 181 L 745 187 L 754 196 L 758 203 L 758 205 L 759 206 L 759 211 L 760 212 L 759 222 L 758 223 L 758 225 L 755 231 L 752 234 L 752 235 L 745 241 L 737 245 L 733 245 L 732 246 L 723 246 L 722 245 L 716 244 L 709 240 L 702 233 L 702 232 L 700 230 L 698 226 L 698 224 L 697 223 L 697 220 L 696 219 L 696 204 L 670 204 L 670 217 L 671 218 L 671 222 L 672 223 L 672 225 L 677 234 L 687 244 L 688 244 L 693 248 L 697 250 L 699 250 L 702 252 L 708 253 L 709 254 L 713 254 L 714 255 L 725 255 L 726 256 L 728 256 L 729 255 L 740 255 L 741 254 L 745 254 L 746 253 L 754 251 L 760 248 L 762 246 L 766 244 L 774 236 L 780 225 L 780 223 L 782 219 L 782 215 L 783 214 L 783 201 L 782 200 L 782 195 L 781 194 L 780 189 L 775 180 L 767 172 L 766 172 L 761 168 L 755 165 L 753 165 L 749 163 L 746 163 L 745 162 L 740 162 L 739 161 L 734 161 L 733 160 L 728 160 L 727 159 L 720 158 L 719 157 L 717 157 L 711 154 L 708 151 L 707 151 L 701 144 L 697 136 L 697 132 L 696 131 L 696 122 L 697 121 L 697 118 L 702 108 L 709 101 L 710 101 L 712 99 L 716 97 L 718 97 L 719 96 L 722 96 L 723 95 L 733 95 L 734 96 L 737 96 L 738 97 L 740 97 L 744 99 L 753 107 L 759 119 L 759 123 L 760 124 L 760 130 L 759 131 L 779 131 L 779 122 L 778 121 L 778 117 L 777 116 L 776 111 L 771 102 L 763 94 L 762 94 L 757 90 L 753 88 L 751 88 L 748 86 L 745 86 L 744 85 L 741 85 L 740 84 L 734 84 L 733 83 L 718 83 L 717 84 Z" fill="currentColor" fill-rule="evenodd" stroke="none" /><path d="M 434 79 L 434 116 L 432 120 L 432 123 L 430 127 L 430 130 L 428 134 L 428 137 L 426 141 L 426 144 L 424 148 L 424 151 L 422 155 L 422 158 L 420 162 L 420 165 L 418 169 L 418 172 L 416 176 L 416 179 L 414 183 L 414 186 L 412 190 L 412 193 L 410 197 L 410 200 L 408 204 L 408 207 L 406 211 L 406 214 L 404 218 L 404 221 L 402 225 L 402 228 L 400 232 L 400 235 L 398 239 L 398 242 L 397 243 L 396 249 L 395 250 L 394 254 L 422 254 L 423 252 L 423 249 L 424 248 L 424 246 L 426 242 L 426 239 L 427 238 L 427 236 L 429 232 L 429 229 L 430 228 L 430 226 L 432 222 L 432 219 L 433 218 L 433 216 L 435 214 L 481 214 L 482 215 L 482 217 L 484 221 L 484 224 L 485 225 L 485 227 L 487 231 L 487 234 L 488 235 L 488 237 L 490 241 L 490 244 L 491 245 L 491 247 L 493 251 L 493 254 L 521 254 L 520 248 L 518 244 L 518 241 L 516 237 L 516 234 L 514 230 L 514 227 L 512 223 L 512 220 L 510 216 L 510 213 L 508 209 L 508 206 L 506 202 L 506 199 L 504 195 L 504 192 L 502 188 L 502 185 L 500 181 L 500 178 L 498 174 L 498 171 L 496 167 L 496 164 L 494 160 L 494 157 L 492 153 L 492 150 L 490 146 L 490 143 L 488 139 L 488 136 L 486 132 L 486 129 L 484 125 L 484 122 L 482 118 L 482 79 Z M 445 89 L 471 89 L 472 90 L 472 187 L 471 188 L 445 188 L 444 187 L 444 90 Z" fill="currentColor" fill-rule="evenodd" stroke="none" /><path d="M 807 59 L 807 81 L 830 81 L 831 82 L 835 82 L 836 83 L 838 83 L 844 89 L 845 91 L 845 93 L 846 94 L 846 110 L 845 111 L 845 117 L 844 118 L 843 128 L 842 129 L 842 140 L 841 141 L 842 155 L 843 156 L 843 159 L 847 167 L 854 174 L 859 176 L 861 178 L 855 181 L 847 189 L 843 197 L 843 200 L 842 201 L 842 208 L 841 209 L 841 215 L 842 216 L 842 227 L 843 228 L 843 233 L 844 234 L 845 244 L 846 245 L 846 262 L 845 263 L 844 267 L 839 272 L 835 273 L 834 274 L 807 274 L 807 296 L 842 296 L 843 295 L 849 294 L 857 290 L 862 286 L 862 285 L 867 279 L 867 277 L 869 274 L 869 271 L 870 270 L 870 264 L 871 263 L 871 255 L 870 254 L 870 245 L 869 244 L 869 239 L 868 238 L 867 228 L 866 227 L 866 217 L 865 216 L 865 209 L 866 208 L 866 204 L 867 203 L 867 201 L 869 197 L 873 193 L 879 190 L 882 190 L 883 189 L 899 189 L 899 167 L 884 167 L 883 166 L 879 166 L 872 162 L 867 155 L 867 153 L 866 152 L 866 148 L 865 147 L 865 139 L 866 138 L 866 129 L 867 128 L 868 117 L 869 116 L 869 112 L 870 111 L 871 93 L 870 92 L 870 86 L 869 85 L 868 79 L 866 75 L 863 72 L 863 71 L 860 68 L 859 68 L 854 64 L 850 63 L 847 61 L 844 61 L 843 60 L 836 60 L 835 59 Z" fill="currentColor" fill-rule="evenodd" stroke="none" /><path d="M 163 59 L 162 60 L 156 60 L 155 61 L 152 61 L 151 62 L 149 62 L 143 65 L 136 71 L 136 72 L 133 75 L 131 79 L 130 85 L 129 86 L 129 92 L 128 93 L 128 101 L 129 102 L 129 112 L 130 113 L 130 117 L 131 118 L 131 123 L 132 124 L 132 129 L 133 130 L 133 139 L 134 140 L 134 147 L 133 148 L 133 152 L 132 153 L 131 157 L 124 164 L 122 165 L 120 165 L 119 166 L 115 166 L 114 167 L 100 167 L 100 189 L 116 189 L 117 190 L 123 191 L 128 195 L 128 196 L 132 201 L 132 203 L 133 204 L 133 208 L 134 209 L 134 216 L 133 217 L 133 226 L 132 227 L 131 238 L 130 239 L 130 243 L 129 244 L 128 263 L 129 264 L 129 270 L 130 271 L 131 277 L 134 281 L 134 282 L 137 285 L 137 286 L 142 290 L 150 294 L 156 295 L 157 296 L 192 296 L 192 274 L 165 274 L 164 273 L 160 272 L 155 267 L 154 265 L 154 263 L 153 262 L 153 245 L 154 244 L 154 239 L 155 238 L 156 228 L 157 227 L 157 216 L 158 215 L 157 201 L 156 200 L 156 197 L 152 189 L 144 181 L 138 178 L 140 176 L 142 176 L 144 174 L 145 174 L 152 167 L 155 161 L 156 156 L 157 155 L 157 148 L 158 147 L 158 141 L 157 140 L 157 129 L 156 128 L 156 123 L 155 122 L 155 117 L 154 116 L 154 111 L 153 110 L 153 94 L 154 93 L 154 91 L 156 87 L 161 83 L 163 83 L 164 82 L 168 82 L 169 81 L 192 81 L 192 59 Z" fill="currentColor" fill-rule="evenodd" stroke="none" /><path d="M 588 47 L 587 48 L 587 77 L 590 77 L 590 47 Z" fill="currentColor" fill-rule="evenodd" stroke="none" /><path d="M 349 47 L 349 77 L 352 77 L 352 47 Z" fill="currentColor" fill-rule="evenodd" stroke="none" /><path d="M 246 47 L 246 77 L 249 77 L 249 47 Z" fill="currentColor" fill-rule="evenodd" stroke="none" /><path d="M 450 33 L 444 39 L 443 43 L 442 44 L 442 51 L 443 52 L 444 56 L 449 61 L 453 62 L 454 63 L 462 63 L 463 62 L 467 61 L 471 57 L 473 53 L 473 51 L 474 50 L 474 45 L 473 44 L 473 41 L 472 39 L 467 34 L 463 32 L 453 32 L 452 33 Z" fill="currentColor" fill-rule="evenodd" stroke="none" /></svg>